{"title":"They Live (1988) 1080p","uid":11890218,"size":4080960404,"categoryP":"video","categoryS":"hd___movies","magnet":"?xt=urn:btih:8e1fbb2adb4d29c5dd242e743118c04312d9b5ba&amp;dn=They+Live+%281988%29+1080p&amp;tr=udp%3A%2F%2Ftracker.openbittorrent.com%3A80&amp;tr=udp%3A%2F%2Fopen.demonii.com%3A1337&amp;tr=udp%3A%2F%2Ftracker.coppersurfer.tk%3A6969&amp;tr=udp%3A%2F%2Fexodus.desync.com%3A6969","seeders":6,"leechers":1,"uploader":"AlienMethod","files":7,"time":1430974375,"description":"mp4/x264\n6-Channel AC3@448kbps (audio 1)\n2-Channel AAC@128kbps (audio 2)\nEnglish Subs\n\n\n&quot;A drifter discovers a pair of sunglasses that allow him to wake up to the fact that \naliens have taken over the Earth.&quot;\n\n\n\n\nGeneral\nComplete name : F:TorrentsThey Live (1988) 1080p\nThey Live (1988) 1080p.mp4\nFormat : MPEG-4\nFormat profile : Base Media\nCodec ID : isom\nFile size : 3.80 GiB\nDuration : 1h 34mn\nOverall bit rate mode : Variable\nOverall bit rate : 5 780 Kbps\nEncoded date : UTC 2015-05-03 01:07:18\nTagged date : UTC 2015-05-03 01:07:18\nWriting application : My MP4Box GUI 0.6.0.6 \n\nVideo\nID : 1\nFormat : AVC\nFormat/Info : Advanced Video Codec\nFormat profile : &lt;a class=&quot;__cf_email__&quot; href=&quot;/cdn-cgi/l/email-protection&quot; data-cfemail=&quot;145c7d737c5458203a24&quot;&gt;[email&amp;#160;protected]&lt;/a&gt;&lt;script cf-hash='f9e31' type=&quot;text/javascript&quot;&gt;\n/* &lt;![CDATA[ */!function(){try{var t=&quot;currentScript&quot;in document?document.currentScript:function(){for(var t=document.getElementsByTagName(&quot;script&quot;),e=t.length;e--;)if(t[e].getAttribute(&quot;cf-hash&quot;))return t[e]}();if(t&amp;&amp;t.previousSibling){var e,r,n,i,c=t.previousSibling,a=c.getAttribute(&quot;data-cfemail&quot;);if(a){for(e=&quot;&quot;,r=parseInt(a.substr(0,2),16),n=2;a.length-n;n+=2)i=parseInt(a.substr(n,2),16)^r,e+=String.fromCharCode(i);e=document.createTextNode(e),c.parentNode.replaceChild(e,c)}}}catch(u){}}();/* ]]&gt; */&lt;/script&gt;\nFormat settings, CABAC : Yes\nFormat settings, ReFrames : 4 frames\nCodec ID : avc1\nCodec ID/Info : Advanced Video Coding\nDuration : 1h 34mn\nBit rate : 5 198 Kbps\nMaximum bit rate : 31.6 Mbps\nWidth : 1 920 pixels\nHeight : 816 pixels\nDisplay aspect ratio : 2.35:1\nFrame rate mode : Constant\nFrame rate : 23.976 fps\nColor space : YUV\nChroma subsampling : 4:2:0\nBit depth : 8 bits\nScan type : Progressive\nBits/(Pixel*Frame) : 0.138\nStream size : 3.42 GiB (90%)\nTitle : They.Live.1988.1080p.h264\nWriting library : x264 core 142 r2479 dd79a61\nEncoded date : UTC 2015-05-03 01:07:18\nTagged date : UTC 2015-05-03 01:07:45\n\nAudio #1\nID : 2\nFormat : AC-3\nFormat/Info : Audio Coding 3\nMode extension : CM (complete main)\nFormat settings, Endianness : Big\nCodec ID : ac-3\nDuration : 1h 34mn\nBit rate mode : Constant\nBit rate : 448 Kbps\nChannel(s) : 6 channels\nChannel positions : Front: L C R, Side: L R, LFE\nSampling rate : 48.0 KHz\nBit depth : 16 bits\nCompression mode : Lossy\nStream size : 302 MiB (8%)\nTitle : They.Live.1988.1080p.AC3.ac3\nEncoded date : UTC 2015-05-03 01:07:39\nTagged date : UTC 2015-05-03 01:07:45\n\nAudio #2\nID : 3\nFormat : AAC\nFormat/Info : Advanced Audio Codec\nFormat profile : LC\nCodec ID : 40\nDuration : 1h 34mn\nBit rate mode : Variable\nBit rate : 132 Kbps\nMaximum bit rate : 180 Kbps\nChannel(s) : 2 channels\nChannel positions : Front: L R\nSampling rate : 48.0 KHz\nCompression mode : Lossy\nStream size : 88.3 MiB (2%)\nTitle : They.Live.1988.1080p.AAC.m4a\nEncoded date : UTC 2015-05-03 01:07:44\nTagged date : UTC 2015-05-03 01:07:45","torrent":{"xt":"urn:btih:8e1fbb2adb4d29c5dd242e743118c04312d9b5ba","amp;dn":"They+Live+%281988%29+1080p","amp;tr":["udp%3A%2F%2Ftracker.openbittorrent.com%3A80","udp%3A%2F%2Fopen.demonii.com%3A1337","udp%3A%2F%2Ftracker.coppersurfer.tk%3A6969","udp%3A%2F%2Fexodus.desync.com%3A6969"],"infoHash":"8e1fbb2adb4d29c5dd242e743118c04312d9b5ba","infoHashBuffer":{"type":"Buffer","data":[142,31,187,42,219,77,41,197,221,36,46,116,49,24,192,67,18,217,181,186]},"announce":[],"urlList":[]}}